<?xml version="1.0" encoding="utf-8"?>
<!-- Generator: Adobe Illustrator 24.1.0, SVG Export Plug-In . SVG Version: 6.00 Build 0)  -->
<svg version="1.1" id="_x31_" xmlns="http://www.w3.org/2000/svg" xmlns:xlink="http://www.w3.org/1999/xlink" x="0px" y="0px"
	 viewBox="0 0 32 32" style="enable-background:new 0 0 32 32;" xml:space="preserve">
<style type="text/css">
	.st0{fill:#E67A85;}
	.st1{opacity:0.1;fill:#040000;enable-background:new    ;}
	.st2{opacity:0.6;fill:#E7E6E1;enable-background:new    ;}
	.st3{fill:#E9CB53;}
	.st4{fill:#F9F9F7;}
	.st5{fill:#E7E6E1;}
	.st6{opacity:0.1;fill:#E7E6E1;enable-background:new    ;}
	.st7{opacity:0.2;fill:#FFFFFF;enable-background:new    ;}
</style>
<g>
	<rect y="0" class="st0" width="32" height="32"/>
	<path class="st1" d="M32,19.9V32H12.9l-5.8-5.8c0-0.2,0-0.3,0-0.5l0.6-1l0-0.3L6.8,13.6L7.4,13l6.4-6.4C13.9,6.7,14,6.9,14.1,7
		c0.4-0.7,1.2-1.2,2-1.2c1.2,0,2.2,0.9,2.4,2c0.2-0.1,0.4-0.1,0.6-0.1c0.3,0,0.6,0.1,0.9,0.2L32,19.9z"/>
	<g>
		<g>
			<polygon class="st2" points="20.9,11.8 20.8,12.8 20.8,12.8 20.7,14.7 20.3,20.2 20.1,22.1 19.9,24.4 19.9,24.6 7.7,24.6 
				7.7,24.4 6.8,13.6 6.7,11.9 6.7,11.8 			"/>
			<path class="st2" d="M19.8,26.7h-12c-0.1,0-0.1,0-0.2,0c-0.3-0.1-0.5-0.3-0.6-0.6c0-0.2,0-0.3,0-0.5l0.6-1h12.2l0.6,1.1
				C20.7,26.2,20.3,26.7,19.8,26.7z"/>
			<polygon class="st3" points="18.7,23.4 8.9,23.4 7.9,13 19.7,13 			"/>
			<path class="st2" d="M25.4,14.5v5.9c0,0.9-0.8,1.7-1.7,1.7h-3.6l0.1-1.9h3.3v-5.6h-2.9l0.1-1.9h2.9
				C24.7,12.8,25.4,13.6,25.4,14.5z"/>
			<circle class="st4" cx="9" cy="11.2" r="2.4"/>
			<circle class="st4" cx="9.4" cy="7.6" r="2.4"/>
			<circle class="st4" cx="11.4" cy="12.4" r="2.4"/>
			<circle class="st4" cx="14.7" cy="11.6" r="2.4"/>
			<circle class="st4" cx="17.3" cy="12.1" r="2.4"/>
			<path class="st4" d="M18.6,8.2c0,0.6-0.2,1.2-0.6,1.6c-0.3,0.3-0.7,0.6-1.1,0.7c0,0,0,0,0,0c-0.2,0.1-0.4,0.1-0.6,0.1
				c-0.2,0-0.4,0-0.7-0.1c-0.6-0.2-1-0.5-1.3-1c0-0.1-0.1-0.1-0.1-0.2c-0.2-0.3-0.3-0.7-0.3-1.1c0-0.5,0.1-0.9,0.3-1.2
				c0.4-0.7,1.2-1.2,2-1.2c1.2,0,2.2,0.9,2.4,2C18.5,7.9,18.6,8.1,18.6,8.2z"/>
			<path class="st4" d="M21.5,10.1c0,0.7-0.3,1.3-0.7,1.7c-0.3,0.3-0.7,0.6-1.2,0.7c-0.2,0-0.3,0.1-0.5,0.1c-0.7,0-1.3-0.3-1.7-0.7
				c-0.1-0.1-0.2-0.3-0.3-0.4c-0.2-0.2-0.3-0.5-0.3-0.8c0,0,0-0.1,0-0.1c0-0.1,0-0.2,0-0.3c0-0.1,0-0.2,0-0.3c0.1-1,0.8-1.7,1.7-2
				c0.2-0.1,0.4-0.1,0.6-0.1c0.3,0,0.6,0.1,0.9,0.2c0.6,0.2,1.1,0.7,1.4,1.4C21.5,9.5,21.5,9.8,21.5,10.1z"/>
			<path class="st4" d="M14.5,8.3c0,0.4-0.1,0.7-0.2,1c0,0.1-0.1,0.2-0.1,0.2c-0.3,0.5-0.7,0.8-1.3,1c-0.1,0-0.2,0.1-0.4,0.1
				c-0.1,0-0.3,0-0.4,0c-0.3,0-0.6-0.1-0.8-0.2c-0.2-0.1-0.5-0.2-0.7-0.4c-0.1,0-0.1-0.1-0.1-0.1c-0.1-0.1-0.1-0.1-0.2-0.2
				C10.1,9.6,9.9,9.3,9.8,9C9.8,8.8,9.7,8.5,9.7,8.3c0-1,0.6-1.9,1.5-2.2c0.3-0.1,0.6-0.2,0.9-0.2c0.7,0,1.3,0.3,1.7,0.7
				C13.9,6.7,14,6.9,14.1,7C14.4,7.4,14.5,7.8,14.5,8.3z"/>
			<circle class="st5" cx="9.6" cy="15.4" r="0.3"/>
			<circle class="st5" cx="11.6" cy="18" r="0.3"/>
			<circle class="st5" cx="12.4" cy="16.2" r="0.3"/>
			<circle class="st5" cx="14.8" cy="15.3" r="0.3"/>
			<circle class="st5" cx="16.3" cy="17.5" r="0.3"/>
			<circle class="st5" cx="17.3" cy="15.4" r="0.3"/>
			<polygon class="st6" points="19.9,24.4 19.9,24.6 7.7,24.6 7.7,24.4 			"/>
		</g>
		<path class="st7" d="M14.1,7c-0.1-0.1-0.2-0.2-0.3-0.4c-0.4-0.4-1-0.7-1.7-0.7c-0.3,0-0.6,0.1-0.9,0.2c-0.4-0.5-1.1-0.9-1.8-0.9
			C8.1,5.2,7,6.3,7,7.6c0,0.6,0.2,1.2,0.6,1.6c-0.6,0.4-1.1,1.2-1.1,2c0,0.3,0,0.5,0.1,0.7l0.1,1.7l0.8,10.7l0,0.3l-0.6,1
			C7,25.8,7,26,7.1,26.2c0.1,0.3,0.3,0.5,0.6,0.6c0.1,0,0.1,0,0.2,0h7.4V6C14.7,6.2,14.4,6.6,14.1,7z"/>
	</g>
</g>
</svg>
